<mxfile host="app.diagrams.net" modified="2024-05-16T09:16:04.999Z" agent="Mozilla/5.0 (Windows NT 10.0; Win64; x64) AppleWebKit/537.36 (KHTML, like Gecko) Chrome/124.0.0.0 Safari/537.36" etag="M5Jt6NkSM0tThSP_uBMW" version="24.4.2" type="device">
  <diagram name="Страница — 1" id="fiNg3RvvNLiUf0lD20wO">
    <mxGraphModel dx="1825" dy="1058" grid="1" gridSize="10" guides="1" tooltips="1" connect="1" arrows="1" fold="1" page="1" pageScale="1" pageWidth="827" pageHeight="1169" math="0" shadow="0">
      <root>
        <mxCell id="0" />
        <mxCell id="1" parent="0" />
        <mxCell id="AMEoKWir9uiUK5dSDQWI-1" value="Начало" style="rounded=1;whiteSpace=wrap;html=1;arcSize=50;" vertex="1" parent="1">
          <mxGeometry x="184" y="60" width="79" height="30" as="geometry" />
        </mxCell>
        <mxCell id="AMEoKWir9uiUK5dSDQWI-2" value="Ввод N, x&lt;sub&gt;1&lt;/sub&gt;&amp;nbsp;x&lt;font size=&quot;1&quot;&gt;&lt;sub&gt;2&lt;/sub&gt;&lt;/font&gt;&amp;nbsp;... x&lt;font size=&quot;1&quot;&gt;&lt;sub&gt;N-1&lt;/sub&gt;&lt;/font&gt;" style="shape=parallelogram;perimeter=parallelogramPerimeter;whiteSpace=wrap;html=1;fixedSize=1;" vertex="1" parent="1">
          <mxGeometry x="153" y="110" width="142" height="40" as="geometry" />
        </mxCell>
        <mxCell id="AMEoKWir9uiUK5dSDQWI-3" value="i = 0, i &amp;lt; N" style="shape=hexagon;perimeter=hexagonPerimeter2;whiteSpace=wrap;html=1;fixedSize=1;" vertex="1" parent="1">
          <mxGeometry x="169" y="220" width="110" height="40" as="geometry" />
        </mxCell>
        <mxCell id="AMEoKWir9uiUK5dSDQWI-4" value="NewN = 0" style="rounded=0;whiteSpace=wrap;html=1;" vertex="1" parent="1">
          <mxGeometry x="183.5" y="170" width="82" height="30" as="geometry" />
        </mxCell>
        <mxCell id="AMEoKWir9uiUK5dSDQWI-5" value="x&lt;sub&gt;i &lt;/sub&gt;% 1 == 0" style="rhombus;whiteSpace=wrap;html=1;" vertex="1" parent="1">
          <mxGeometry x="164" y="280" width="120" height="60" as="geometry" />
        </mxCell>
        <mxCell id="AMEoKWir9uiUK5dSDQWI-6" value="x&lt;sub&gt;NewN &lt;/sub&gt;= x&lt;sub&gt;i&lt;/sub&gt;&lt;div&gt;NewN = NewN + 1&lt;/div&gt;" style="rounded=0;whiteSpace=wrap;html=1;" vertex="1" parent="1">
          <mxGeometry x="309" y="285" width="120" height="50" as="geometry" />
        </mxCell>
        <mxCell id="AMEoKWir9uiUK5dSDQWI-10" value="i" style="ellipse;whiteSpace=wrap;html=1;aspect=fixed;" vertex="1" parent="1">
          <mxGeometry x="204" y="380" width="40" height="40" as="geometry" />
        </mxCell>
        <mxCell id="AMEoKWir9uiUK5dSDQWI-11" value="" style="endArrow=classic;html=1;rounded=0;exitX=0.5;exitY=1;exitDx=0;exitDy=0;" edge="1" parent="1" source="AMEoKWir9uiUK5dSDQWI-1" target="AMEoKWir9uiUK5dSDQWI-2">
          <mxGeometry width="50" height="50" relative="1" as="geometry">
            <mxPoint x="-40" y="210" as="sourcePoint" />
            <mxPoint x="10" y="160" as="targetPoint" />
          </mxGeometry>
        </mxCell>
        <mxCell id="AMEoKWir9uiUK5dSDQWI-12" value="" style="endArrow=classic;html=1;rounded=0;exitX=0.5;exitY=1;exitDx=0;exitDy=0;" edge="1" parent="1" source="AMEoKWir9uiUK5dSDQWI-2" target="AMEoKWir9uiUK5dSDQWI-4">
          <mxGeometry width="50" height="50" relative="1" as="geometry">
            <mxPoint x="20" y="250" as="sourcePoint" />
            <mxPoint x="70" y="200" as="targetPoint" />
          </mxGeometry>
        </mxCell>
        <mxCell id="AMEoKWir9uiUK5dSDQWI-13" value="" style="endArrow=classic;html=1;rounded=0;exitX=0.5;exitY=1;exitDx=0;exitDy=0;" edge="1" parent="1" source="AMEoKWir9uiUK5dSDQWI-4" target="AMEoKWir9uiUK5dSDQWI-3">
          <mxGeometry width="50" height="50" relative="1" as="geometry">
            <mxPoint x="40" y="230" as="sourcePoint" />
            <mxPoint x="90" y="180" as="targetPoint" />
          </mxGeometry>
        </mxCell>
        <mxCell id="AMEoKWir9uiUK5dSDQWI-14" value="" style="endArrow=classic;html=1;rounded=0;exitX=0.5;exitY=1;exitDx=0;exitDy=0;entryX=0.5;entryY=0;entryDx=0;entryDy=0;" edge="1" parent="1" source="AMEoKWir9uiUK5dSDQWI-3" target="AMEoKWir9uiUK5dSDQWI-5">
          <mxGeometry width="50" height="50" relative="1" as="geometry">
            <mxPoint x="70" y="280" as="sourcePoint" />
            <mxPoint x="120" y="230" as="targetPoint" />
          </mxGeometry>
        </mxCell>
        <mxCell id="AMEoKWir9uiUK5dSDQWI-15" value="" style="endArrow=classic;html=1;rounded=0;exitX=0.5;exitY=1;exitDx=0;exitDy=0;entryX=0.5;entryY=0;entryDx=0;entryDy=0;" edge="1" parent="1" source="AMEoKWir9uiUK5dSDQWI-5">
          <mxGeometry width="50" height="50" relative="1" as="geometry">
            <mxPoint x="60" y="420" as="sourcePoint" />
            <mxPoint x="224" y="380" as="targetPoint" />
          </mxGeometry>
        </mxCell>
        <mxCell id="AMEoKWir9uiUK5dSDQWI-16" value="" style="endArrow=classic;html=1;rounded=0;exitX=1;exitY=0.5;exitDx=0;exitDy=0;entryX=0;entryY=0.5;entryDx=0;entryDy=0;" edge="1" parent="1" source="AMEoKWir9uiUK5dSDQWI-5" target="AMEoKWir9uiUK5dSDQWI-6">
          <mxGeometry width="50" height="50" relative="1" as="geometry">
            <mxPoint x="100" y="370" as="sourcePoint" />
            <mxPoint x="150" y="320" as="targetPoint" />
          </mxGeometry>
        </mxCell>
        <mxCell id="AMEoKWir9uiUK5dSDQWI-17" value="" style="endArrow=classic;html=1;rounded=0;exitX=0.5;exitY=1;exitDx=0;exitDy=0;" edge="1" parent="1" source="AMEoKWir9uiUK5dSDQWI-6">
          <mxGeometry width="50" height="50" relative="1" as="geometry">
            <mxPoint x="370" y="340" as="sourcePoint" />
            <mxPoint x="224" y="360" as="targetPoint" />
            <Array as="points">
              <mxPoint x="370" y="360" />
            </Array>
          </mxGeometry>
        </mxCell>
        <mxCell id="AMEoKWir9uiUK5dSDQWI-22" value="" style="endArrow=classic;html=1;rounded=0;exitX=0;exitY=0.5;exitDx=0;exitDy=0;entryX=0;entryY=0.5;entryDx=0;entryDy=0;" edge="1" parent="1" source="AMEoKWir9uiUK5dSDQWI-10" target="AMEoKWir9uiUK5dSDQWI-3">
          <mxGeometry width="50" height="50" relative="1" as="geometry">
            <mxPoint x="20" y="430" as="sourcePoint" />
            <mxPoint x="70" y="380" as="targetPoint" />
            <Array as="points">
              <mxPoint x="130" y="400" />
              <mxPoint x="130" y="240" />
            </Array>
          </mxGeometry>
        </mxCell>
        <mxCell id="AMEoKWir9uiUK5dSDQWI-48" style="edgeStyle=orthogonalEdgeStyle;rounded=0;orthogonalLoop=1;jettySize=auto;html=1;exitX=0.5;exitY=1;exitDx=0;exitDy=0;entryX=0.5;entryY=0;entryDx=0;entryDy=0;" edge="1" parent="1" source="AMEoKWir9uiUK5dSDQWI-24" target="AMEoKWir9uiUK5dSDQWI-47">
          <mxGeometry relative="1" as="geometry" />
        </mxCell>
        <mxCell id="AMEoKWir9uiUK5dSDQWI-24" value="NewN = 0" style="rhombus;whiteSpace=wrap;html=1;" vertex="1" parent="1">
          <mxGeometry x="477.5" y="210" width="96" height="60" as="geometry" />
        </mxCell>
        <mxCell id="AMEoKWir9uiUK5dSDQWI-25" value="" style="endArrow=classic;html=1;rounded=0;exitX=1;exitY=0.5;exitDx=0;exitDy=0;entryX=0;entryY=0.5;entryDx=0;entryDy=0;" edge="1" parent="1" source="AMEoKWir9uiUK5dSDQWI-24" target="AMEoKWir9uiUK5dSDQWI-26">
          <mxGeometry width="50" height="50" relative="1" as="geometry">
            <mxPoint x="695.5" y="480" as="sourcePoint" />
            <mxPoint x="745.5" y="430" as="targetPoint" />
          </mxGeometry>
        </mxCell>
        <mxCell id="AMEoKWir9uiUK5dSDQWI-26" value="Вывод &quot;нет элементов&quot;" style="shape=parallelogram;perimeter=parallelogramPerimeter;whiteSpace=wrap;html=1;fixedSize=1;" vertex="1" parent="1">
          <mxGeometry x="591.5" y="217.5" width="125.5" height="45" as="geometry" />
        </mxCell>
        <mxCell id="AMEoKWir9uiUK5dSDQWI-29" value="" style="endArrow=classic;html=1;rounded=0;exitX=0.5;exitY=1;exitDx=0;exitDy=0;" edge="1" parent="1">
          <mxGeometry width="50" height="50" relative="1" as="geometry">
            <mxPoint x="658.25" y="262.5" as="sourcePoint" />
            <mxPoint x="525.5" y="350" as="targetPoint" />
            <Array as="points">
              <mxPoint x="658.5" y="350" />
            </Array>
          </mxGeometry>
        </mxCell>
        <mxCell id="AMEoKWir9uiUK5dSDQWI-32" value="Конец" style="rounded=1;whiteSpace=wrap;html=1;arcSize=50;" vertex="1" parent="1">
          <mxGeometry x="194.5" y="1010" width="71" height="30" as="geometry" />
        </mxCell>
        <mxCell id="AMEoKWir9uiUK5dSDQWI-37" value="+" style="text;html=1;align=center;verticalAlign=middle;resizable=0;points=[];autosize=1;strokeColor=none;fillColor=none;" vertex="1" parent="1">
          <mxGeometry x="272" y="285" width="30" height="30" as="geometry" />
        </mxCell>
        <mxCell id="AMEoKWir9uiUK5dSDQWI-38" value="-" style="text;html=1;align=center;verticalAlign=middle;resizable=0;points=[];autosize=1;strokeColor=none;fillColor=none;" vertex="1" parent="1">
          <mxGeometry x="194" y="335" width="30" height="30" as="geometry" />
        </mxCell>
        <mxCell id="AMEoKWir9uiUK5dSDQWI-105" style="edgeStyle=orthogonalEdgeStyle;rounded=0;orthogonalLoop=1;jettySize=auto;html=1;exitX=0.5;exitY=1;exitDx=0;exitDy=0;entryX=0.5;entryY=0;entryDx=0;entryDy=0;" edge="1" parent="1" source="AMEoKWir9uiUK5dSDQWI-47" target="AMEoKWir9uiUK5dSDQWI-50">
          <mxGeometry relative="1" as="geometry" />
        </mxCell>
        <mxCell id="AMEoKWir9uiUK5dSDQWI-47" value="Вывод x&lt;sub&gt;1&lt;/sub&gt;&amp;nbsp;x&lt;font size=&quot;1&quot;&gt;&lt;sub&gt;2&lt;/sub&gt;&lt;/font&gt;&amp;nbsp;... x&lt;font size=&quot;1&quot;&gt;&lt;sub&gt;N-1&lt;/sub&gt;&lt;/font&gt;" style="shape=parallelogram;perimeter=parallelogramPerimeter;whiteSpace=wrap;html=1;fixedSize=1;" vertex="1" parent="1">
          <mxGeometry x="455.75" y="297.5" width="139.5" height="25" as="geometry" />
        </mxCell>
        <mxCell id="AMEoKWir9uiUK5dSDQWI-50" value="N_max = 0&lt;br&gt;N_min = 0" style="rounded=0;whiteSpace=wrap;html=1;" vertex="1" parent="1">
          <mxGeometry x="481.5" y="420" width="88" height="40" as="geometry" />
        </mxCell>
        <mxCell id="AMEoKWir9uiUK5dSDQWI-60" style="edgeStyle=orthogonalEdgeStyle;rounded=0;orthogonalLoop=1;jettySize=auto;html=1;exitX=0.5;exitY=1;exitDx=0;exitDy=0;entryX=0.5;entryY=0;entryDx=0;entryDy=0;" edge="1" parent="1" source="AMEoKWir9uiUK5dSDQWI-52" target="AMEoKWir9uiUK5dSDQWI-56">
          <mxGeometry relative="1" as="geometry" />
        </mxCell>
        <mxCell id="AMEoKWir9uiUK5dSDQWI-52" value="i = 0, i &amp;lt; N" style="shape=hexagon;perimeter=hexagonPerimeter2;whiteSpace=wrap;html=1;fixedSize=1;" vertex="1" parent="1">
          <mxGeometry x="176" y="460" width="110" height="40" as="geometry" />
        </mxCell>
        <mxCell id="AMEoKWir9uiUK5dSDQWI-54" value="-" style="text;html=1;align=center;verticalAlign=middle;resizable=0;points=[];autosize=1;strokeColor=none;fillColor=none;" vertex="1" parent="1">
          <mxGeometry x="495.5" y="260" width="30" height="30" as="geometry" />
        </mxCell>
        <mxCell id="AMEoKWir9uiUK5dSDQWI-55" value="+" style="text;html=1;align=center;verticalAlign=middle;resizable=0;points=[];autosize=1;strokeColor=none;fillColor=none;" vertex="1" parent="1">
          <mxGeometry x="561.5" y="210" width="30" height="30" as="geometry" />
        </mxCell>
        <mxCell id="AMEoKWir9uiUK5dSDQWI-61" style="edgeStyle=orthogonalEdgeStyle;rounded=0;orthogonalLoop=1;jettySize=auto;html=1;exitX=0.5;exitY=1;exitDx=0;exitDy=0;entryX=0.5;entryY=0;entryDx=0;entryDy=0;" edge="1" parent="1" source="AMEoKWir9uiUK5dSDQWI-56" target="AMEoKWir9uiUK5dSDQWI-57">
          <mxGeometry relative="1" as="geometry" />
        </mxCell>
        <mxCell id="AMEoKWir9uiUK5dSDQWI-62" style="edgeStyle=orthogonalEdgeStyle;rounded=0;orthogonalLoop=1;jettySize=auto;html=1;exitX=1;exitY=0.5;exitDx=0;exitDy=0;entryX=0;entryY=0.5;entryDx=0;entryDy=0;" edge="1" parent="1" source="AMEoKWir9uiUK5dSDQWI-56" target="AMEoKWir9uiUK5dSDQWI-58">
          <mxGeometry relative="1" as="geometry" />
        </mxCell>
        <mxCell id="AMEoKWir9uiUK5dSDQWI-56" value="x&lt;sub&gt;i&lt;/sub&gt; &amp;gt; x&lt;sub&gt;N_max&lt;/sub&gt;" style="rhombus;whiteSpace=wrap;html=1;" vertex="1" parent="1">
          <mxGeometry x="186" y="520" width="86" height="50" as="geometry" />
        </mxCell>
        <mxCell id="AMEoKWir9uiUK5dSDQWI-63" style="edgeStyle=orthogonalEdgeStyle;rounded=0;orthogonalLoop=1;jettySize=auto;html=1;exitX=1;exitY=0.5;exitDx=0;exitDy=0;entryX=0;entryY=0.5;entryDx=0;entryDy=0;" edge="1" parent="1" source="AMEoKWir9uiUK5dSDQWI-57" target="AMEoKWir9uiUK5dSDQWI-59">
          <mxGeometry relative="1" as="geometry" />
        </mxCell>
        <mxCell id="AMEoKWir9uiUK5dSDQWI-70" style="edgeStyle=orthogonalEdgeStyle;rounded=0;orthogonalLoop=1;jettySize=auto;html=1;exitX=0.5;exitY=1;exitDx=0;exitDy=0;entryX=0.5;entryY=0;entryDx=0;entryDy=0;" edge="1" parent="1" source="AMEoKWir9uiUK5dSDQWI-57">
          <mxGeometry relative="1" as="geometry">
            <mxPoint x="229" y="670" as="targetPoint" />
          </mxGeometry>
        </mxCell>
        <mxCell id="AMEoKWir9uiUK5dSDQWI-57" value="x&lt;sub&gt;i&lt;/sub&gt; &amp;lt; x&lt;sub&gt;N_min&lt;/sub&gt;" style="rhombus;whiteSpace=wrap;html=1;" vertex="1" parent="1">
          <mxGeometry x="186" y="590" width="86" height="50" as="geometry" />
        </mxCell>
        <mxCell id="AMEoKWir9uiUK5dSDQWI-58" value="N_max = i" style="rounded=0;whiteSpace=wrap;html=1;" vertex="1" parent="1">
          <mxGeometry x="298" y="530" width="68" height="30" as="geometry" />
        </mxCell>
        <mxCell id="AMEoKWir9uiUK5dSDQWI-59" value="N_min = i" style="rounded=0;whiteSpace=wrap;html=1;" vertex="1" parent="1">
          <mxGeometry x="298" y="600" width="68" height="30" as="geometry" />
        </mxCell>
        <mxCell id="AMEoKWir9uiUK5dSDQWI-65" value="-" style="text;html=1;align=center;verticalAlign=middle;resizable=0;points=[];autosize=1;strokeColor=none;fillColor=none;" vertex="1" parent="1">
          <mxGeometry x="202" y="560" width="30" height="30" as="geometry" />
        </mxCell>
        <mxCell id="AMEoKWir9uiUK5dSDQWI-66" value="+" style="text;html=1;align=center;verticalAlign=middle;resizable=0;points=[];autosize=1;strokeColor=none;fillColor=none;" vertex="1" parent="1">
          <mxGeometry x="260" y="520" width="30" height="30" as="geometry" />
        </mxCell>
        <mxCell id="AMEoKWir9uiUK5dSDQWI-67" value="-" style="text;html=1;align=center;verticalAlign=middle;resizable=0;points=[];autosize=1;strokeColor=none;fillColor=none;" vertex="1" parent="1">
          <mxGeometry x="202" y="630" width="30" height="30" as="geometry" />
        </mxCell>
        <mxCell id="AMEoKWir9uiUK5dSDQWI-68" value="+" style="text;html=1;align=center;verticalAlign=middle;resizable=0;points=[];autosize=1;strokeColor=none;fillColor=none;" vertex="1" parent="1">
          <mxGeometry x="262" y="590" width="30" height="30" as="geometry" />
        </mxCell>
        <mxCell id="AMEoKWir9uiUK5dSDQWI-71" value="" style="endArrow=classic;html=1;rounded=0;exitX=0.5;exitY=1;exitDx=0;exitDy=0;" edge="1" parent="1">
          <mxGeometry width="50" height="50" relative="1" as="geometry">
            <mxPoint x="333" y="630" as="sourcePoint" />
            <mxPoint x="229" y="650" as="targetPoint" />
            <Array as="points">
              <mxPoint x="333" y="650" />
            </Array>
          </mxGeometry>
        </mxCell>
        <mxCell id="AMEoKWir9uiUK5dSDQWI-72" value="" style="endArrow=classic;html=1;rounded=0;exitX=0.5;exitY=1;exitDx=0;exitDy=0;" edge="1" parent="1" source="AMEoKWir9uiUK5dSDQWI-58">
          <mxGeometry width="50" height="50" relative="1" as="geometry">
            <mxPoint x="333" y="564" as="sourcePoint" />
            <mxPoint x="229" y="574" as="targetPoint" />
            <Array as="points">
              <mxPoint x="332" y="574" />
            </Array>
          </mxGeometry>
        </mxCell>
        <mxCell id="AMEoKWir9uiUK5dSDQWI-73" value="i" style="ellipse;whiteSpace=wrap;html=1;aspect=fixed;" vertex="1" parent="1">
          <mxGeometry x="214" y="670" width="30" height="30" as="geometry" />
        </mxCell>
        <mxCell id="AMEoKWir9uiUK5dSDQWI-74" value="" style="endArrow=classic;html=1;rounded=0;entryX=0;entryY=0.5;entryDx=0;entryDy=0;exitX=0;exitY=0.5;exitDx=0;exitDy=0;" edge="1" parent="1" source="AMEoKWir9uiUK5dSDQWI-73" target="AMEoKWir9uiUK5dSDQWI-52">
          <mxGeometry width="50" height="50" relative="1" as="geometry">
            <mxPoint x="68" y="570" as="sourcePoint" />
            <mxPoint x="118" y="520" as="targetPoint" />
            <Array as="points">
              <mxPoint x="148" y="685" />
              <mxPoint x="148" y="480" />
            </Array>
          </mxGeometry>
        </mxCell>
        <mxCell id="AMEoKWir9uiUK5dSDQWI-78" style="edgeStyle=orthogonalEdgeStyle;rounded=0;orthogonalLoop=1;jettySize=auto;html=1;exitX=0.5;exitY=1;exitDx=0;exitDy=0;" edge="1" parent="1" source="AMEoKWir9uiUK5dSDQWI-76">
          <mxGeometry relative="1" as="geometry">
            <mxPoint x="450" y="580" as="targetPoint" />
          </mxGeometry>
        </mxCell>
        <mxCell id="AMEoKWir9uiUK5dSDQWI-76" value="multiple = 1&lt;div&gt;a =&amp;nbsp;&lt;span style=&quot;background-color: initial;&quot;&gt;N_min&lt;/span&gt;&lt;/div&gt;&lt;div&gt;b =&amp;nbsp;&lt;span style=&quot;background-color: initial;&quot;&gt;N_max&lt;/span&gt;&lt;/div&gt;" style="rounded=0;whiteSpace=wrap;html=1;" vertex="1" parent="1">
          <mxGeometry x="404.5" y="510" width="91" height="50" as="geometry" />
        </mxCell>
        <mxCell id="AMEoKWir9uiUK5dSDQWI-82" style="edgeStyle=orthogonalEdgeStyle;rounded=0;orthogonalLoop=1;jettySize=auto;html=1;exitX=1;exitY=0.5;exitDx=0;exitDy=0;entryX=0;entryY=0.5;entryDx=0;entryDy=0;" edge="1" parent="1" source="AMEoKWir9uiUK5dSDQWI-79" target="AMEoKWir9uiUK5dSDQWI-80">
          <mxGeometry relative="1" as="geometry" />
        </mxCell>
        <mxCell id="AMEoKWir9uiUK5dSDQWI-85" style="edgeStyle=orthogonalEdgeStyle;rounded=0;orthogonalLoop=1;jettySize=auto;html=1;exitX=0.5;exitY=1;exitDx=0;exitDy=0;entryX=0.5;entryY=0;entryDx=0;entryDy=0;" edge="1" parent="1" source="AMEoKWir9uiUK5dSDQWI-79" target="AMEoKWir9uiUK5dSDQWI-84">
          <mxGeometry relative="1" as="geometry" />
        </mxCell>
        <mxCell id="AMEoKWir9uiUK5dSDQWI-79" value="N_min &amp;gt; N_max" style="rhombus;whiteSpace=wrap;html=1;" vertex="1" parent="1">
          <mxGeometry x="396.53999999999996" y="580" width="109" height="60" as="geometry" />
        </mxCell>
        <mxCell id="AMEoKWir9uiUK5dSDQWI-80" value="a = N_max&lt;br&gt;b = N_min" style="rounded=0;whiteSpace=wrap;html=1;" vertex="1" parent="1">
          <mxGeometry x="524.54" y="590" width="78" height="40" as="geometry" />
        </mxCell>
        <mxCell id="AMEoKWir9uiUK5dSDQWI-83" value="" style="endArrow=classic;html=1;rounded=0;exitX=0.521;exitY=1.008;exitDx=0;exitDy=0;exitPerimeter=0;" edge="1" parent="1">
          <mxGeometry width="50" height="50" relative="1" as="geometry">
            <mxPoint x="563.1780000000001" y="630" as="sourcePoint" />
            <mxPoint x="451.03999999999996" y="649.6800000000001" as="targetPoint" />
            <Array as="points">
              <mxPoint x="563.04" y="649.6800000000001" />
            </Array>
          </mxGeometry>
        </mxCell>
        <mxCell id="AMEoKWir9uiUK5dSDQWI-87" style="edgeStyle=orthogonalEdgeStyle;rounded=0;orthogonalLoop=1;jettySize=auto;html=1;exitX=0.5;exitY=1;exitDx=0;exitDy=0;entryX=0.5;entryY=0;entryDx=0;entryDy=0;" edge="1" parent="1" source="AMEoKWir9uiUK5dSDQWI-84" target="AMEoKWir9uiUK5dSDQWI-86">
          <mxGeometry relative="1" as="geometry" />
        </mxCell>
        <mxCell id="AMEoKWir9uiUK5dSDQWI-84" value="i = a, i &amp;lt;= b" style="shape=hexagon;perimeter=hexagonPerimeter2;whiteSpace=wrap;html=1;fixedSize=1;" vertex="1" parent="1">
          <mxGeometry x="396" y="699" width="110" height="40" as="geometry" />
        </mxCell>
        <mxCell id="AMEoKWir9uiUK5dSDQWI-90" style="edgeStyle=orthogonalEdgeStyle;rounded=0;orthogonalLoop=1;jettySize=auto;html=1;exitX=0.5;exitY=1;exitDx=0;exitDy=0;entryX=0.5;entryY=0;entryDx=0;entryDy=0;" edge="1" parent="1" source="AMEoKWir9uiUK5dSDQWI-86" target="AMEoKWir9uiUK5dSDQWI-89">
          <mxGeometry relative="1" as="geometry" />
        </mxCell>
        <mxCell id="AMEoKWir9uiUK5dSDQWI-86" value="multiple = multiple * x&lt;sub&gt;i&lt;/sub&gt;" style="rounded=0;whiteSpace=wrap;html=1;" vertex="1" parent="1">
          <mxGeometry x="385" y="760" width="132" height="31" as="geometry" />
        </mxCell>
        <mxCell id="AMEoKWir9uiUK5dSDQWI-89" value="i" style="ellipse;whiteSpace=wrap;html=1;aspect=fixed;" vertex="1" parent="1">
          <mxGeometry x="436" y="811" width="30" height="30" as="geometry" />
        </mxCell>
        <mxCell id="AMEoKWir9uiUK5dSDQWI-97" style="edgeStyle=orthogonalEdgeStyle;rounded=0;orthogonalLoop=1;jettySize=auto;html=1;exitX=0.5;exitY=1;exitDx=0;exitDy=0;entryX=0.5;entryY=0;entryDx=0;entryDy=0;" edge="1" parent="1" source="AMEoKWir9uiUK5dSDQWI-93" target="AMEoKWir9uiUK5dSDQWI-96">
          <mxGeometry relative="1" as="geometry" />
        </mxCell>
        <mxCell id="AMEoKWir9uiUK5dSDQWI-93" value="i = i, i &amp;lt; N" style="shape=hexagon;perimeter=hexagonPerimeter2;whiteSpace=wrap;html=1;fixedSize=1;" vertex="1" parent="1">
          <mxGeometry x="175" y="750" width="110" height="40" as="geometry" />
        </mxCell>
        <mxCell id="AMEoKWir9uiUK5dSDQWI-96" value="x&lt;sub&gt;i &lt;/sub&gt;= multiple&lt;sub&gt;&amp;nbsp;&lt;/sub&gt;" style="rounded=0;whiteSpace=wrap;html=1;" vertex="1" parent="1">
          <mxGeometry x="184" y="810" width="92" height="30" as="geometry" />
        </mxCell>
        <mxCell id="AMEoKWir9uiUK5dSDQWI-98" value="i = i + 2" style="ellipse;whiteSpace=wrap;html=1;aspect=fixed;" vertex="1" parent="1">
          <mxGeometry x="205" y="860" width="50" height="50" as="geometry" />
        </mxCell>
        <mxCell id="AMEoKWir9uiUK5dSDQWI-99" value="" style="endArrow=classic;html=1;rounded=0;exitX=0.5;exitY=1;exitDx=0;exitDy=0;entryX=0.5;entryY=0;entryDx=0;entryDy=0;" edge="1" parent="1" source="AMEoKWir9uiUK5dSDQWI-96" target="AMEoKWir9uiUK5dSDQWI-98">
          <mxGeometry width="50" height="50" relative="1" as="geometry">
            <mxPoint x="97" y="920" as="sourcePoint" />
            <mxPoint x="147" y="870" as="targetPoint" />
          </mxGeometry>
        </mxCell>
        <mxCell id="AMEoKWir9uiUK5dSDQWI-100" value="" style="endArrow=classic;html=1;rounded=0;entryX=0;entryY=0.5;entryDx=0;entryDy=0;exitX=0;exitY=0.5;exitDx=0;exitDy=0;" edge="1" parent="1" source="AMEoKWir9uiUK5dSDQWI-98" target="AMEoKWir9uiUK5dSDQWI-93">
          <mxGeometry width="50" height="50" relative="1" as="geometry">
            <mxPoint x="-13" y="780" as="sourcePoint" />
            <mxPoint x="37" y="730" as="targetPoint" />
            <Array as="points">
              <mxPoint x="157" y="885" />
              <mxPoint x="157" y="770" />
            </Array>
          </mxGeometry>
        </mxCell>
        <mxCell id="AMEoKWir9uiUK5dSDQWI-102" style="edgeStyle=orthogonalEdgeStyle;rounded=0;orthogonalLoop=1;jettySize=auto;html=1;exitX=0.5;exitY=1;exitDx=0;exitDy=0;entryX=0.5;entryY=0;entryDx=0;entryDy=0;" edge="1" parent="1" source="AMEoKWir9uiUK5dSDQWI-101" target="AMEoKWir9uiUK5dSDQWI-32">
          <mxGeometry relative="1" as="geometry" />
        </mxCell>
        <mxCell id="AMEoKWir9uiUK5dSDQWI-101" value="Вывод x&lt;sub&gt;1&lt;/sub&gt;&amp;nbsp;x&lt;font size=&quot;1&quot;&gt;&lt;sub&gt;2&lt;/sub&gt;&lt;/font&gt;&amp;nbsp;... x&lt;font size=&quot;1&quot;&gt;&lt;sub&gt;N-1&lt;/sub&gt;&lt;/font&gt;" style="shape=parallelogram;perimeter=parallelogramPerimeter;whiteSpace=wrap;html=1;fixedSize=1;" vertex="1" parent="1">
          <mxGeometry x="155" y="950" width="150" height="40" as="geometry" />
        </mxCell>
        <mxCell id="AMEoKWir9uiUK5dSDQWI-103" value="" style="endArrow=classic;html=1;rounded=0;exitX=1;exitY=0.5;exitDx=0;exitDy=0;entryX=0.5;entryY=0;entryDx=0;entryDy=0;" edge="1" parent="1" target="AMEoKWir9uiUK5dSDQWI-101">
          <mxGeometry width="50" height="50" relative="1" as="geometry">
            <mxPoint x="285" y="770" as="sourcePoint" />
            <mxPoint x="232" y="922" as="targetPoint" />
            <Array as="points">
              <mxPoint x="309" y="770" />
              <mxPoint x="307" y="930" />
              <mxPoint x="230" y="930" />
            </Array>
          </mxGeometry>
        </mxCell>
        <mxCell id="AMEoKWir9uiUK5dSDQWI-104" value="" style="endArrow=classic;html=1;rounded=0;exitX=1;exitY=0.5;exitDx=0;exitDy=0;entryX=0;entryY=0.5;entryDx=0;entryDy=0;" edge="1" parent="1" source="AMEoKWir9uiUK5dSDQWI-3" target="AMEoKWir9uiUK5dSDQWI-24">
          <mxGeometry width="50" height="50" relative="1" as="geometry">
            <mxPoint x="390" y="220" as="sourcePoint" />
            <mxPoint x="440" y="170" as="targetPoint" />
          </mxGeometry>
        </mxCell>
        <mxCell id="AMEoKWir9uiUK5dSDQWI-107" value="" style="endArrow=classic;html=1;rounded=0;exitX=0;exitY=0.5;exitDx=0;exitDy=0;entryX=0.5;entryY=0;entryDx=0;entryDy=0;" edge="1" parent="1" source="AMEoKWir9uiUK5dSDQWI-50" target="AMEoKWir9uiUK5dSDQWI-52">
          <mxGeometry width="50" height="50" relative="1" as="geometry">
            <mxPoint x="290" y="490" as="sourcePoint" />
            <mxPoint x="340" y="440" as="targetPoint" />
            <Array as="points">
              <mxPoint x="230" y="440" />
            </Array>
          </mxGeometry>
        </mxCell>
        <mxCell id="AMEoKWir9uiUK5dSDQWI-108" value="" style="endArrow=classic;html=1;rounded=0;exitX=1;exitY=0.5;exitDx=0;exitDy=0;entryX=0.5;entryY=0;entryDx=0;entryDy=0;" edge="1" parent="1" source="AMEoKWir9uiUK5dSDQWI-52" target="AMEoKWir9uiUK5dSDQWI-76">
          <mxGeometry width="50" height="50" relative="1" as="geometry">
            <mxPoint x="370" y="510" as="sourcePoint" />
            <mxPoint x="420" y="460" as="targetPoint" />
            <Array as="points">
              <mxPoint x="450" y="480" />
            </Array>
          </mxGeometry>
        </mxCell>
        <mxCell id="AMEoKWir9uiUK5dSDQWI-109" value="" style="endArrow=classic;html=1;rounded=0;exitX=1;exitY=0.5;exitDx=0;exitDy=0;entryX=1;entryY=0.5;entryDx=0;entryDy=0;" edge="1" parent="1" source="AMEoKWir9uiUK5dSDQWI-89" target="AMEoKWir9uiUK5dSDQWI-84">
          <mxGeometry width="50" height="50" relative="1" as="geometry">
            <mxPoint x="519.46" y="871" as="sourcePoint" />
            <mxPoint x="569.46" y="821" as="targetPoint" />
            <Array as="points">
              <mxPoint x="529.46" y="826" />
              <mxPoint x="529.46" y="719" />
            </Array>
          </mxGeometry>
        </mxCell>
        <mxCell id="AMEoKWir9uiUK5dSDQWI-110" value="" style="endArrow=classic;html=1;rounded=0;exitX=0;exitY=0.5;exitDx=0;exitDy=0;entryX=0.5;entryY=0;entryDx=0;entryDy=0;" edge="1" parent="1" source="AMEoKWir9uiUK5dSDQWI-84" target="AMEoKWir9uiUK5dSDQWI-93">
          <mxGeometry width="50" height="50" relative="1" as="geometry">
            <mxPoint x="160" y="750" as="sourcePoint" />
            <mxPoint x="210" y="700" as="targetPoint" />
            <Array as="points">
              <mxPoint x="230" y="720" />
            </Array>
          </mxGeometry>
        </mxCell>
        <mxCell id="AMEoKWir9uiUK5dSDQWI-227" value="+" style="text;html=1;align=center;verticalAlign=middle;resizable=0;points=[];autosize=1;strokeColor=none;fillColor=none;" vertex="1" parent="1">
          <mxGeometry x="494.53999999999996" y="585" width="30" height="30" as="geometry" />
        </mxCell>
        <mxCell id="AMEoKWir9uiUK5dSDQWI-228" value="-" style="text;html=1;align=center;verticalAlign=middle;resizable=0;points=[];autosize=1;strokeColor=none;fillColor=none;" vertex="1" parent="1">
          <mxGeometry x="420" y="630" width="30" height="30" as="geometry" />
        </mxCell>
      </root>
    </mxGraphModel>
  </diagram>
</mxfile>
